<svg version="1" xmlns="http://www.w3.org/2000/svg" width="853.333" height="853.333" viewBox="0 0 640.000000 640.000000"><path d="M0 320v320h640V0H0v320zm269.9-151.4c1.3.9 3 3.2 3.7 5.1 1.4 3.2 1.3 3.7-1.7 9.6-4.4 8.7-15.3 24.3-36.3 52-37.7 49.7-42 55.5-49.7 67-7.8 11.6-13.9 22.5-13.9 24.8 0 .6 2.4-.6 5.3-2.7 40.5-29.4 78.4-54.5 94.4-62.6 13.9-7 21.4-8.5 28.6-5.4 3.8 1.5 6.7 6.1 6.7 10.4 0 1.8-11.2 17.7-32.2 45.8-15.9 21.4-26 38.6-30.2 51.8-9.9 30.5 10.5 31.2 44.2 1.7 8.6-7.5 27.9-28.4 41.5-44.9 39.7-48 52.1-62.9 53.6-64 1.1-.9 3.5-1.2 7.5-1 7.2.5 9.6 2.8 9.6 9.3 0 3.4-.9 5.6-5.1 11.6-20 29.2-28 42-36.3 58.4-4.8 9.7-10 22.5-9 22.5.4 0 9.5-8.7 20.3-19.3 50.4-49.4 85.7-78.8 103.6-86.1 5.6-2.4 14.8-3.2 18.5-1.6 3.8 1.6 6 5.6 6 10.9 0 4.4-4.8 11.5-26.4 38.6-30.8 38.6-41.6 58.4-41.6 76.2 0 7.4 1.9 12.8 4.9 13.8 4.3 1.3 15.6-3.8 27.1-12.3 9.1-6.7 34.9-31.9 47.2-46 4.9-5.6 9.4-10.2 9.9-10.2 1.7 0 2.2 3.1 1 7-.8 2.8-5.3 8.6-15.1 19.4-23.5 25.9-43.4 43.4-57.9 50.8-7.7 4-9 4.3-16 4.3-9.9 0-15.7-3.1-19.2-10.2-2.1-4.2-2.4-6.2-2.3-15.8.1-11.9 2-21.4 7-33.4 5.6-13.9 9.8-21.2 36.5-64.2 1.6-2.5 2.9-4.9 2.9-5.3 0-.4-3.6 2-7.9 5.4-26.4 20.4-49.7 45-89.1 93.9-19.3 23.9-25 30.1-28 30.1-5.5 0-11.2-6.2-13-14.3-2.1-9.4.3-18 12.2-45 3.9-8.7 6.8-16 6.5-16.3-.2-.2-6 5.5-12.8 12.7-19.2 20.5-49.2 46.6-63.4 55.2-8.1 4.9-11.5 5.8-17.8 4.6-8.8-1.6-11.5-2.9-15.2-7.2-5.4-6.3-7.9-15.7-7.2-26.6 1.3-19 5-27 34-74 4.8-7.9 8.6-14.6 8.3-14.8-.8-.8-19.5 10-31.8 18.3-17.8 12-45.2 35.1-55.7 47-1.9 2.1-6.9 7.7-11.1 12.4-4.3 4.7-11.4 13.9-16 20.5-10.1 14.5-13.7 19.3-18.6 24.7-3.3 3.7-4.1 4.1-8.1 3.9-12.1-.4-13.4-5.9-5-22.2 17.1-33.3 66.1-116.1 89-150.4 21.2-31.7 43.1-57.2 53.9-62.8 6.1-3.2 6.6-3.2 9.7-1.1zm-89.5 254c1.9.7 2.2 6.4.4 8.2-.7.7-2.2 1.2-3.5 1.2-1.9 0-2.3.5-2.3 3 0 1.6-.4 3-1 3s-1-3.3-1-8v-8h2.9c1.6 0 3.6.3 4.5.6zm64.3 11.6c-.2 2.4-.4.5-.4-4.2s.2-6.6.4-4.3c.2 2.4.2 6.2 0 8.5zm14.4-5.2c2.7 0 2.9-.3 2.9-3.5 0-1.9.5-3.5 1-3.5.6 0 1 3.3 1 8s-.4 8-1 8c-.5 0-1-1.6-1-3.5 0-3.2-.2-3.5-2.9-3.5-2.7 0-3 .4-3.4 3.7-.2 2.1-.4 0-.4-4.7s.2-6.8.4-4.8c.4 3.4.7 3.8 3.4 3.8zm29.6 5.2c-.2 2.4-.4.5-.4-4.2s.2-6.6.4-4.3c.2 2.4.2 6.2 0 8.5zm36-6l2.8 5.2.6-6c.5-5.6.6-5.5.7 2.6l.1 8.5-3.4-6-3.5-6v5.7c0 3.2-.4 5.8-1 5.8s-1-3.4-1-8.1c0-4.8.4-7.8 1-7.4.5.3 2.2 2.9 3.7 5.7zm61.7-5.6c2.1.8 2.1 6.3-.1 7.9-1.5 1.1-1.5 1.5.6 4.4 1.2 1.7 1.8 3.1 1.2 3.1-.5 0-1.9-1.6-3.1-3.5-1.2-1.9-2.6-3.5-3.1-3.5s-.9 1.6-.9 3.5-.4 3.5-1 3.5-1-3.3-1-8v-8h2.9c1.6 0 3.6.3 4.5.6zm33.6 7.2v7.8l-3.2.2c-3.7.3-4.8-1-4.8-5.9 0-3.9 2.1-6.5 4.5-5.5 1.1.4 1.5-.1 1.5-1.9 0-1.4.5-2.5 1-2.5.6 0 1 3.3 1 7.8zm-229.2-2.6c.7.7 1.2 2 1.2 3 0 1.3-.8 1.8-3 1.8-2.3 0-3 .4-3 2 0 2.9 3 3.8 4.7 1.4 1.4-1.9 1.5-1.9 1.1.1-.2 1.5-1.1 2-3.3 2-2.9 0-3-.2-3.3-4.9-.2-3.2.1-5.2 1-5.7 1.8-1.2 3.2-1.1 4.6.3zm9.2-.2c0 .5-.7 1-1.5 1-1.1 0-1.5 1.2-1.5 5 0 2.7-.4 5-1 5-.5 0-1-2.4-1-5.4 0-4.4.4-5.5 1.8-5.9 2.9-.8 3.2-.7 3.2.3zm7.4-.4c.9.3 1.6 1.4 1.5 2.3 0 1-.2 1.1-.6.3-.7-1.7-4.3-1.5-4.3.2 0 .8.9 1.7 1.9 2.1 3.2 1 4.6 3.2 3.1 5.1-1.9 2.1-6.4 1.4-6.8-1.1-.2-1.8-.2-1.8.8-.3 1.3 2.2 5 2.4 5 .3 0-.8-1.3-2.1-3-3-3.2-1.6-3.8-3.3-1.8-5.3 1.4-1.4 2-1.4 4.2-.6zm11.5.8c.7.8 1.1 3.4.9 5.8-.3 3.6-.7 4.4-2.6 4.6-3.3.5-5.2-1.5-5.2-5.4 0-5.2 4.2-8.2 6.9-5zm10.5.2c1.8 1.7 2.3 10.4.6 10.4-.5 0-1-2.3-1-5.1 0-4.7-.2-5-2.2-4.7-1.9.2-2.4 1.1-2.9 5.3l-.6 5-.1-5.7c-.2-5.7 0-6 4-6.7.4 0 1.4.6 2.2 1.5zm10.4-.4c.7.7 1.2 3.3 1.2 5.8 0 4.5-.1 4.6-3.4 4.8-2.8.2-3.6-.2-4.1-1.9-.8-2.3 1.5-4.9 4.2-4.9.7 0 1.3-.7 1.3-1.5 0-1.8-3.6-2-4.3-.3-.2.7-.8.9-1.3.5-.5-.5-.1-1.5 1-2.3 2.4-1.7 3.8-1.8 5.4-.2zm33 0c.7.7 1.2 3.1 1.2 5.5 0 3.7-.3 4.3-2.4 4.9-3 .7-4.6-.1-4.6-2.5 0-2.2 1.9-4.1 4.2-4.1 1 0 1.8-.7 1.8-1.5 0-1.8-3.1-2-4.8-.3-.7.7-1.2.8-1.2.2 0-1.3 2.1-3.4 3.5-3.4.6 0 1.6.5 2.3 1.2zm10.7.4c.9.9 1.3 1.9 1 2.2-.3.4-1 0-1.4-.7-.5-.7-1.7-1.1-2.7-.9-2.6.5-3.3 7.5-.8 8.5 1.1.4 2.2-.1 3.1-1.3 1.4-1.9 1.5-1.9 1.1.1-.2 1.5-1.1 2-3.3 2-2.8 0-3-.3-3.3-4.3-.5-6.4 2.7-9.2 6.3-5.6zm9.6 2c-1.8 2.3-1.9 2.9-.8 4.3 2.8 3.2 3 4.5.4 2.2-1.5-1.4-2.7-3-2.7-3.6 0-1.6 4.1-6.8 4.7-6.1.3.3-.4 1.7-1.6 3.2zm10.7-2.4c.7.7 1.2 2 1.2 3 0 1.3-.8 1.8-3 1.8-2.3 0-3 .4-3 2 0 2.9 3 3.8 4.7 1.4 1.4-1.9 1.5-1.9 1.1.1-.2 1.5-1.1 2-3.3 2-2.9 0-3-.2-3.3-4.9-.2-3.2.1-5.2 1-5.7 1.8-1.2 3.2-1.1 4.6.3zm9.2-.2c0 .5-.7 1-1.5 1-1.1 0-1.5 1.2-1.5 5 0 2.7-.4 5-1 5-.5 0-1-2.4-1-5.4 0-4.4.4-5.5 1.8-5.9 2.9-.8 3.2-.7 3.2.3zm25.8.2c.7.7 1.2 2 1.2 3 0 1.3-.8 1.8-3 1.8-2.3 0-3 .4-3 2 0 2.9 3 3.8 4.7 1.4 1.4-1.9 1.5-1.9 1.1.1-.4 2.3-4.2 3.2-6.4 1.5-1.9-1.6-1.8-7.5.2-9.4 1.9-1.9 3.6-2 5.2-.4zm6.2 5.6c0 2.3 1.8.3 2.5-2.8.4-1.7 1-3 1.5-3s1.1 1.3 1.5 3c1 4.4 2.1 4.4 3.4-.1.7-2.3 1.5-3.9 1.7-3.6.8.8-2.8 11.7-3.7 11.1-.4-.2-1-1.8-1.4-3.4-.6-2.7-2.5-4.3-2.5-2.1 0 .5-.5 2.2-1.1 3.8l-1.1 2.8-1.8-5c-1-2.8-1.8-5.7-1.8-6.5 0-1.8 2.7 3.9 2.8 5.8zm19.8-5.6c.7.7 1.2 1.6 1.2 2.2 0 .6-.5.5-1.2-.2-1.6-1.6-4.8-1.5-4.8.2 0 .8 1.4 1.9 3.1 2.5 2.4.8 3 1.5 2.7 3.3-.5 3.8-7.9 3.3-7.8-.6 0-.6.7-.3 1.5.7 1.5 2 4.6 2 5.3-.1.2-.7-.9-1.7-2.6-2.3-3.7-1.3-4.6-3.3-2.6-5.4 1.9-1.8 3.6-1.9 5.2-.3zm33 0c.7.7 1.2 2 1.2 3 0 1.3-.8 1.8-3 1.8-2.5 0-3 .4-3 2.5 0 2.9 3.4 3.6 4.4.9.4-.9.9-1.4 1.3-1.1 1.1 1.1-1.9 3.7-4.2 3.7-2.6 0-3.5-1.7-3.5-6.4 0-3.5 1.5-5.6 4-5.6.9 0 2.1.5 2.8 1.2zm10 0c.7.7 1.2 3.1 1.2 5.5 0 3.7-.3 4.3-2.4 4.9-3 .7-4.6-.1-4.6-2.5 0-2.2 1.9-4.1 4.2-4.1 1 0 1.8-.7 1.8-1.5 0-1.8-3.1-2-4.8-.3-.7.7-1.2.8-1.2.2 0-1.3 2.1-3.4 3.5-3.4.6 0 1.6.5 2.3 1.2zm21 0c.7.7 1.2 2 1.2 3 0 1.3-.8 1.8-3 1.8-2.3 0-3 .4-3 2 0 2.9 3 3.8 4.7 1.4 1.4-1.9 1.5-1.9 1.1.1-.2 1.5-1.1 2-3.3 2-2.9 0-3-.2-3.3-4.9-.2-3.2.1-5.2 1-5.7 1.8-1.2 3.2-1.1 4.6.3zm9.2-.2c0 .5-.7 1-1.5 1-1.1 0-1.5 1.2-1.5 5 0 2.7-.4 5-1 5-.5 0-1-2.4-1-5.4 0-4.4.4-5.5 1.8-5.9 2.9-.8 3.2-.7 3.2.3zm-41.3 21.7c-.4 1.5-.5 1.4-.6-.5 0-1.2-.5-2.2-1-2.2s-1.2 1-1.4 2.2c-.3 1.4-.5.8-.6-1.5l-.1-3.8 2.1 2c1.2 1.1 1.9 2.7 1.6 3.8zm32.2-2c-.1 2.4-.3 2.9-.6 1.5-.2-1.2-.9-2.2-1.5-2.2s-.8.9-.5 2c.3 1.1.1 1.8-.4 1.4-1.4-.8-1.1-2.6.9-4.5 2.3-2.4 2.2-2.4 2.1 1.8zm-21 1c-.1 2.2-.2 2.3-.6.8-.3-1.1-1-2.3-1.7-2.7-.7-.5-.5-.8.7-.8s1.7.7 1.6 2.7zm8.8 1c-.3 1-.5.4-.5-1.2 0-1.7.2-2.4.5-1.8.2.7.2 2.1 0 3zm2.5-1.2c-.2 1.4-.6 2.5-.8 2.5-.2 0-.4-1.1-.4-2.5s.4-2.5.9-2.5c.4 0 .6 1.1.3 2.5zm2.5 1.2c-.3 1-.5.4-.5-1.2 0-1.7.2-2.4.5-1.8.2.7.2 2.1 0 3zm14.6-.2c-.3.9-.8 1.4-1 1.1-.3-.3-.2-.9.2-1.5.9-1.6 1.5-1.3.8.4zm-24.8 1.3c-.3.3-1.1 0-1.8-.7-.9-1-.8-1.1.6-.5 1 .3 1.5.9 1.2 1.2z"/><path d="M175 426.4c0 3.2.3 3.6 2.5 3.6 4.7 0 4.4-6.1-.4-6.8-1.8-.3-2.1.1-2.1 3.2zM381 426.5c0 2.4.5 3.5 1.4 3.5 2.9 0 4.6-1.3 4.6-3.5s-1.7-3.5-4.6-3.5c-.9 0-1.4 1.1-1.4 3.5zM414 432.5c0 3.8.3 4.5 2 4.5s2-.7 2-4.5-.3-4.5-2-4.5-2 .7-2 4.5zM186 429.5c0 .9.9 1.5 2.5 1.5s2.5-.6 2.5-1.5-.9-1.5-2.5-1.5-2.5.6-2.5 1.5zM214.2 432.2c.2 3.5.7 4.3 2.3 4.3 1.7 0 2-.7 2-4 0-3.4-.3-4-2.3-4.3-2.2-.3-2.3 0-2 4zM235.7 432.7c-1.5 1.5-.7 4.3 1.3 4.3 1.5 0 2-.7 2-2.5 0-2.4-1.8-3.4-3.3-1.8zM269.1 432.9c-1.9 1.2-.6 4.3 1.6 3.9 2.1-.4 3.1-4.8 1.1-4.8-.7 0-1.9.4-2.7.9zM299 429.5c0 .9.9 1.5 2.5 1.5s2.5-.6 2.5-1.5-.9-1.5-2.5-1.5-2.5.6-2.5 1.5zM334 429.4c0 1.1.9 1.6 2.6 1.6 3.1 0 2.8-2.3-.4-2.8-1.5-.2-2.2.2-2.2 1.2zM393 429.5c0 .8.9 1.5 2 1.5s2-.7 2-1.5-.9-1.5-2-1.5-2 .7-2 1.5zM404.1 432.9c-1.9 1.2-.6 4.3 1.6 3.9 2.1-.4 3.1-4.8 1.1-4.8-.7 0-1.9.4-2.7.9zM424 429.5c0 .9.9 1.5 2.5 1.5s2.5-.6 2.5-1.5-.9-1.5-2.5-1.5-2.5.6-2.5 1.5z"/></svg>